<svg viewBox="66.6347 156.885 366.7306 191.5483" width="5000" height="2611.5669104241647" xmlns="http://www.w3.org/2000/svg" xmlns:xlink="http://www.w3.org/1999/xlink" preserveAspectRatio="none"><defs></defs><style>.a6izo4zJpcolor {fill:#D9D9D9;fill-opacity:1;}.companyName {fill:#71DB77;fill-opacity:1;}.icon1 {fill:#71DB77;fill-opacity:1;}.icon2 {fill:#D9D9D9;fill-opacity:1;}.icon3 {fill:#696969;fill-opacity:1;}.icon3-str {stroke:#696969;stroke-opacity:1;}</style><g opacity="1" transform="rotate(0 66.6347 331.749)">
<svg width="366.7306" height="16.6843" x="66.6347" y="331.749" version="1.1" preserveAspectRatio="none" viewBox="1.4453 -30 846.9297 38.5352">
  <g transform="matrix(1 0 0 1 0 0)" class="a6izo4zJpcolor"><path id="id-6izo4zJp42" d="M14.30-7.46L14.30-7.46Q14.30-9.20 13.41-10.09Q12.52-10.98 10.18-11.93L10.18-11.93Q5.90-13.55 4.02-15.73Q2.15-17.91 2.15-20.88L2.15-20.88Q2.15-24.47 4.70-26.65Q7.25-28.83 11.17-28.83L11.17-28.83Q13.79-28.83 15.84-27.72Q17.89-26.62 18.99-24.61Q20.10-22.60 20.10-20.04L20.10-20.04L14.38-20.04Q14.38-22.03 13.53-23.08Q12.68-24.12 11.07-24.12L11.07-24.12Q9.57-24.12 8.73-23.23Q7.89-22.34 7.89-20.84L7.89-20.84Q7.89-19.67 8.83-18.72Q9.77-17.77 12.15-16.76L12.15-16.76Q16.31-15.25 18.19-13.07Q20.08-10.88 20.08-7.50L20.08-7.50Q20.08-3.79 17.71-1.70Q15.35 0.39 11.29 0.39L11.29 0.39Q8.54 0.39 6.27-0.74Q4.00-1.88 2.72-3.98Q1.45-6.09 1.45-8.96L1.45-8.96L7.21-8.96Q7.21-6.50 8.16-5.39Q9.12-4.28 11.29-4.28L11.29-4.28Q14.30-4.28 14.30-7.46Z M36.15 0.39L36.15 0.39Q31.89 0.39 29.51-2.15Q27.13-4.69 27.13-9.41L27.13-9.41L27.13-11.09Q27.13-16.09 29.31-18.81Q31.50-21.52 35.58-21.52L35.58-21.52Q39.57-21.52 41.58-18.97Q43.59-16.43 43.63-11.43L43.63-11.43L43.63-8.71L32.63-8.71Q32.75-6.37 33.67-5.28Q34.59-4.20 36.50-4.20L36.50-4.20Q39.27-4.20 41.13-6.09L41.13-6.09L43.30-2.75Q42.28-1.35 40.35-0.48Q38.41 0.39 36.15 0.39ZM32.67-12.58L32.67-12.58L38.20-12.58L38.20-13.09Q38.16-14.98 37.57-15.96Q36.99-16.93 35.54-16.93Q34.10-16.93 33.44-15.90Q32.79-14.86 32.67-12.58Z M58.39-4.20L58.39-4.20Q60.79-4.20 60.83-7.32L60.83-7.32L66.03-7.32Q65.99-3.87 63.90-1.74Q61.81 0.39 58.51 0.39L58.51 0.39Q54.43 0.39 52.28-2.15Q50.13-4.69 50.09-9.63L50.09-9.63L50.09-11.31Q50.09-16.29 52.21-18.91Q54.33-21.52 58.47-21.52L58.47-21.52Q61.96-21.52 63.98-19.37Q65.99-17.21 66.03-13.24L66.03-13.24L60.83-13.24Q60.81-15.02 60.25-15.98Q59.68-16.93 58.37-16.93L58.37-16.93Q56.93-16.93 56.30-15.91Q55.68-14.88 55.64-11.93L55.64-11.93L55.64-9.79Q55.64-7.21 55.89-6.18Q56.14-5.16 56.73-4.68Q57.32-4.20 58.39-4.20Z M83.70 0L83.54-1.93Q81.82 0.39 78.93 0.39L78.93 0.39Q76.02 0.39 74.52-1.61Q73.02-3.61 73.02-7.44L73.02-7.44L73.02-21.13L78.54-21.13L78.54-7.30Q78.58-4.22 80.59-4.22L80.59-4.22Q82.49-4.22 83.33-5.86L83.33-5.86L83.33-21.13L88.89-21.13L88.89 0L83.70 0Z M107.33-21.27L107.27-15.80L105.43-15.96Q103.17-15.96 102.37-13.96L102.37-13.96L102.37 0L96.82 0L96.82-21.13L102.04-21.13L102.19-18.85Q103.50-21.52 105.80-21.52L105.80-21.52Q106.74-21.52 107.33-21.27L107.33-21.27Z M119.90-21.13L119.90 0L114.36 0L114.36-21.13L119.90-21.13ZM114.10-26.60L114.10-26.60Q114.10-27.89 114.92-28.71Q115.74-29.53 117.11-29.53Q118.48-29.53 119.30-28.71Q120.12-27.89 120.12-26.60L120.12-26.60Q120.12-25.33 119.31-24.49Q118.50-23.65 117.11-23.65Q115.72-23.65 114.91-24.49Q114.10-25.33 114.10-26.60Z M129.08-26.33L134.61-26.33L134.61-21.13L137.44-21.13L137.44-16.97L134.61-16.97L134.61-6.48Q134.61-5.23 134.95-4.77Q135.29-4.30 136.27-4.30L136.27-4.30Q137.07-4.30 137.57-4.43L137.57-4.43L137.54-0.14Q136.13 0.39 134.49 0.39L134.49 0.39Q129.14 0.39 129.08-5.74L129.08-5.74L129.08-16.97L126.64-16.97L126.64-21.13L129.08-21.13L129.08-26.33Z M148.70-21.13L151.24-9.20L154.05-21.13L159.95-21.13L153 3.16Q151.44 8.54 147.12 8.54L147.12 8.54Q146.13 8.54 144.86 8.16L144.86 8.16L144.86 3.85L145.50 3.87Q146.79 3.87 147.44 3.37Q148.10 2.87 148.43 1.64L148.43 1.64L148.86 0.21L142.77-21.13L148.70-21.13Z M193.34-9.47L199.09-9.47Q198.87-4.61 196.35-2.11Q193.83 0.39 189.24 0.39L189.24 0.39Q184.42 0.39 181.85-2.78Q179.28-5.96 179.28-11.84L179.28-11.84L179.28-16.62Q179.28-22.48 181.94-25.65Q184.59-28.83 189.32-28.83L189.32-28.83Q193.97-28.83 196.38-26.23Q198.79-23.63 199.13-18.77L199.13-18.77L193.36-18.77Q193.29-21.78 192.44-22.92Q191.59-24.06 189.32-24.06L189.32-24.06Q187.02-24.06 186.06-22.45Q185.10-20.84 185.04-17.15L185.04-17.15L185.04-11.78Q185.04-7.54 185.99-5.96Q186.94-4.38 189.24-4.38L189.24-4.38Q191.51-4.38 192.37-5.48Q193.23-6.58 193.34-9.47L193.34-9.47Z M205.70-9.90L205.70-11.25Q205.70-16.05 207.97-18.79Q210.23-21.52 214.24-21.52L214.24-21.52Q218.28-21.52 220.55-18.79Q222.81-16.05 222.81-11.21L222.81-11.21L222.81-9.86Q222.81-5.04 220.57-2.32Q218.32 0.39 214.28 0.39L214.28 0.39Q210.21 0.39 207.96-2.33Q205.70-5.06 205.70-9.90L205.70-9.90ZM211.25-11.25L211.25-9.86Q211.25-4.20 214.28-4.20L214.28-4.20Q217.07-4.20 217.29-8.93L217.29-8.93L217.30-11.25Q217.30-14.14 216.50-15.54Q215.70-16.93 214.24-16.93L214.24-16.93Q212.83-16.93 212.04-15.54Q211.25-14.14 211.25-11.25L211.25-11.25Z M230.11-21.13L235.31-21.13L235.46-19.04Q237.34-21.52 240.37-21.52L240.37-21.52Q245.82-21.52 245.97-13.89L245.97-13.89L245.97 0L240.43 0L240.43-13.48Q240.43-15.27 239.89-16.08Q239.35-16.89 238.00-16.89L238.00-16.89Q236.50-16.89 235.66-15.35L235.66-15.35L235.66 0L230.11 0L230.11-21.13Z M263.29-5.66L263.29-5.66Q263.29-6.37 262.62-6.96Q261.95-7.56 259.62-8.57L259.62-8.57Q256.20-9.96 254.92-11.45Q253.64-12.93 253.64-15.14L253.64-15.14Q253.64-17.91 255.65-19.72Q257.65-21.52 260.95-21.52L260.95-21.52Q264.43-21.52 266.52-19.73Q268.61-17.93 268.61-14.90L268.61-14.90L263.08-14.90Q263.08-17.48 260.93-17.48L260.93-17.48Q260.05-17.48 259.48-16.93Q258.92-16.39 258.92-15.41L258.92-15.41Q258.92-14.71 259.54-14.17Q260.17-13.63 262.49-12.64L262.49-12.64Q265.87-11.39 267.27-9.85Q268.66-8.32 268.66-5.88L268.66-5.88Q268.66-3.05 266.54-1.33Q264.41 0.39 260.95 0.39L260.95 0.39Q258.63 0.39 256.85-0.52Q255.07-1.43 254.06-3.05Q253.06-4.67 253.06-6.54L253.06-6.54L258.31-6.54Q258.35-5.10 258.99-4.38Q259.62-3.65 261.07-3.65L261.07-3.65Q263.29-3.65 263.29-5.66Z M286.65 0L286.49-1.93Q284.77 0.39 281.88 0.39L281.88 0.39Q278.97 0.39 277.47-1.61Q275.96-3.61 275.96-7.44L275.96-7.44L275.96-21.13L281.49-21.13L281.49-7.30Q281.53-4.22 283.54-4.22L283.54-4.22Q285.44-4.22 286.28-5.86L286.28-5.86L286.28-21.13L291.84-21.13L291.84 0L286.65 0Z M305.59-30L305.59 0L300.04 0L300.04-30L305.59-30Z M314.77-26.33L320.29-26.33L320.29-21.13L323.13-21.13L323.13-16.97L320.29-16.97L320.29-6.48Q320.29-5.23 320.63-4.77Q320.98-4.30 321.95-4.30L321.95-4.30Q322.75-4.30 323.26-4.43L323.26-4.43L323.22-0.14Q321.82 0.39 320.18 0.39L320.18 0.39Q314.82 0.39 314.77-5.74L314.77-5.74L314.77-16.97L312.32-16.97L312.32-21.13L314.77-21.13L314.77-26.33Z M335.95-21.13L335.95 0L330.41 0L330.41-21.13L335.95-21.13ZM330.15-26.60L330.15-26.60Q330.15-27.89 330.97-28.71Q331.79-29.53 333.16-29.53Q334.53-29.53 335.35-28.71Q336.17-27.89 336.17-26.60L336.17-26.60Q336.17-25.33 335.36-24.49Q334.55-23.65 333.16-23.65Q331.77-23.65 330.96-24.49Q330.15-25.33 330.15-26.60Z M344.09-21.13L349.29-21.13L349.45-19.04Q351.32-21.52 354.35-21.52L354.35-21.52Q359.80-21.52 359.95-13.89L359.95-13.89L359.95 0L354.41 0L354.41-13.48Q354.41-15.27 353.87-16.08Q353.33-16.89 351.98-16.89L351.98-16.89Q350.48-16.89 349.64-15.35L349.64-15.35L349.64 0L344.09 0L344.09-21.13Z M367.25-9.65L367.25-11.21Q367.25-16.41 369.13-18.96Q371.00-21.52 374.38-21.52L374.38-21.52Q377.25-21.52 378.82-19.26L378.82-19.26L379.03-21.13L384.01-21.13L384.01 0Q384.01 4.04 381.75 6.18Q379.48 8.32 375.24 8.32L375.24 8.32Q373.50 8.32 371.59 7.63Q369.68 6.93 368.74 5.86L368.74 5.86L370.59 2.03Q371.38 2.85 372.63 3.37Q373.88 3.89 374.99 3.89L374.99 3.89Q376.84 3.89 377.65 3.00Q378.46 2.11 378.48 0.14L378.48 0.14L378.48-1.68Q376.90 0.39 374.36 0.39L374.36 0.39Q370.98 0.39 369.14-2.24Q367.29-4.86 367.25-9.65L367.25-9.65ZM372.78-11.21L372.78-9.82Q372.78-6.89 373.54-5.56Q374.30-4.22 375.96-4.22L375.96-4.22Q377.66-4.22 378.48-5.45L378.48-5.45L378.48-15.55Q377.63-16.89 376.00-16.89L376.00-16.89Q374.36-16.89 373.57-15.55Q372.78-14.20 372.78-11.21L372.78-11.21Z M420.20-16.37L420.20-11.60L411.27-11.60L411.27 0L405.53 0L405.53-28.44L421.27-28.44L421.27-23.65L411.27-23.65L411.27-16.37L420.20-16.37Z M427.22-9.90L427.22-11.25Q427.22-16.05 429.49-18.79Q431.75-21.52 435.76-21.52L435.76-21.52Q439.80-21.52 442.07-18.79Q444.33-16.05 444.33-11.21L444.33-11.21L444.33-9.86Q444.33-5.04 442.09-2.32Q439.84 0.39 435.80 0.39L435.80 0.39Q431.73 0.39 429.48-2.33Q427.22-5.06 427.22-9.90L427.22-9.90ZM432.77-11.25L432.77-9.86Q432.77-4.20 435.80-4.20L435.80-4.20Q438.59-4.20 438.80-8.93L438.80-8.93L438.82-11.25Q438.82-14.14 438.02-15.54Q437.22-16.93 435.76-16.93L435.76-16.93Q434.35-16.93 433.56-15.54Q432.77-14.14 432.77-11.25L432.77-11.25Z M462.26-21.27L462.20-15.80L460.36-15.96Q458.10-15.96 457.30-13.96L457.30-13.96L457.30 0L451.75 0L451.75-21.13L456.96-21.13L457.12-18.85Q458.43-21.52 460.73-21.52L460.73-21.52Q461.67-21.52 462.26-21.27L462.26-21.27Z M499.77-28.44L499.77-23.65L492.74-23.65L492.74 0L486.98 0L486.98-23.65L480.06-23.65L480.06-28.44L499.77-28.44Z M512.19-30L512.19-19.28Q513.98-21.52 516.60-21.52L516.60-21.52Q519.49-21.52 521.00-19.49Q522.50-17.46 522.52-13.44L522.52-13.44L522.52 0L516.97 0L516.97-13.38Q516.97-15.23 516.40-16.06Q515.82-16.89 514.53-16.89L514.53-16.89Q513.03-16.89 512.19-15.51L512.19-15.51L512.19 0L506.66 0L506.66-30L512.19-30Z M539.02 0.39L539.02 0.39Q534.76 0.39 532.38-2.15Q530.00-4.69 530.00-9.41L530.00-9.41L530.00-11.09Q530.00-16.09 532.18-18.81Q534.37-21.52 538.45-21.52L538.45-21.52Q542.44-21.52 544.45-18.97Q546.46-16.43 546.50-11.43L546.50-11.43L546.50-8.71L535.50-8.71Q535.62-6.37 536.54-5.28Q537.46-4.20 539.37-4.20L539.37-4.20Q542.14-4.20 544-6.09L544-6.09L546.17-2.75Q545.15-1.35 543.22-0.48Q541.29 0.39 539.02 0.39ZM535.54-12.58L535.54-12.58L541.07-12.58L541.07-13.09Q541.03-14.98 540.45-15.96Q539.86-16.93 538.41-16.93Q536.97-16.93 536.31-15.90Q535.66-14.86 535.54-12.58Z M581.80-16.93L581.80-12.30L572.86-12.30L572.86-4.77L583.45-4.77L583.45 0L567.12 0L567.12-28.44L583.41-28.44L583.41-23.65L572.86-23.65L572.86-16.93L581.80-16.93Z M594.22-21.13L596.90-7.81L599.57-21.13L605.34-21.13L599.54 0L594.26 0L588.44-21.13L594.22-21.13Z M620.21 0.39L620.21 0.39Q615.96 0.39 613.57-2.15Q611.19-4.69 611.19-9.41L611.19-9.41L611.19-11.09Q611.19-16.09 613.38-18.81Q615.57-21.52 619.65-21.52L619.65-21.52Q623.63-21.52 625.64-18.97Q627.66-16.43 627.70-11.43L627.70-11.43L627.70-8.71L616.70-8.71Q616.82-6.37 617.73-5.28Q618.65-4.20 620.57-4.20L620.57-4.20Q623.34-4.20 625.20-6.09L625.20-6.09L627.36-2.75Q626.35-1.35 624.41-0.48Q622.48 0.39 620.21 0.39ZM616.74-12.58L616.74-12.58L622.27-12.58L622.27-13.09Q622.23-14.98 621.64-15.96Q621.05-16.93 619.61-16.93Q618.16-16.93 617.51-15.90Q616.86-14.86 616.74-12.58Z M645.31-21.27L645.25-15.80L643.41-15.96Q641.15-15.96 640.35-13.96L640.35-13.96L640.35 0L634.80 0L634.80-21.13L640.02-21.13L640.17-18.85Q641.48-21.52 643.79-21.52L643.79-21.52Q644.72-21.52 645.31-21.27L645.31-21.27Z M656.67-21.13L659.21-9.20L662.02-21.13L667.92-21.13L660.97 3.16Q659.41 8.54 655.09 8.54L655.09 8.54Q654.09 8.54 652.82 8.16L652.82 8.16L652.82 3.85L653.47 3.87Q654.76 3.87 655.41 3.37Q656.07 2.87 656.40 1.64L656.40 1.64L656.83 0.21L650.73-21.13L656.67-21.13Z M673.29-9.61L673.29-11.21Q673.29-16.41 675.05-18.96Q676.80-21.52 680.16-21.52L680.16-21.52Q682.61-21.52 684.23-19.41L684.23-19.41L684.23-30L689.79-30L689.79 0L684.77 0L684.52-2.15Q682.82 0.39 680.14 0.39L680.14 0.39Q676.82 0.39 675.08-2.15Q673.33-4.69 673.29-9.61L673.29-9.61ZM678.84-11.29L678.84-9.82Q678.84-6.70 679.50-5.46Q680.16-4.22 681.75-4.22L681.75-4.22Q683.39-4.22 684.23-5.68L684.23-5.68L684.23-15.33Q683.41-16.89 681.77-16.89L681.77-16.89Q680.24-16.89 679.54-15.66Q678.84-14.43 678.84-11.29L678.84-11.29Z M713.46 0L707.89 0Q707.66-0.49 707.43-1.64L707.43-1.64Q705.94 0.39 703.40 0.39L703.40 0.39Q700.75 0.39 699.00-1.37Q697.25-3.13 697.25-5.92L697.25-5.92Q697.25-9.24 699.37-11.05Q701.49-12.87 705.47-12.91L705.47-12.91L707.15-12.91L707.15-14.61Q707.15-16.04 706.66-16.62Q706.18-17.21 705.24-17.21L705.24-17.21Q703.17-17.21 703.17-14.79L703.17-14.79L697.64-14.79Q697.64-17.71 699.84-19.62Q702.04-21.52 705.39-21.52L705.39-21.52Q708.87-21.52 710.78-19.72Q712.68-17.91 712.68-14.55L712.68-14.55L712.68-4.61Q712.72-1.88 713.46-0.33L713.46-0.33L713.46 0ZM704.63-3.95L704.63-3.95Q705.55-3.95 706.20-4.32Q706.84-4.69 707.15-5.20L707.15-5.20L707.15-9.59L705.82-9.59Q704.42-9.59 703.61-8.69Q702.80-7.79 702.80-6.29L702.80-6.29Q702.80-3.95 704.63-3.95Z M724.63-21.13L727.17-9.20L729.98-21.13L735.88-21.13L728.93 3.16Q727.36 8.54 723.05 8.54L723.05 8.54Q722.05 8.54 720.78 8.16L720.78 8.16L720.78 3.85L721.43 3.87Q722.71 3.87 723.37 3.37Q724.02 2.87 724.36 1.64L724.36 1.64L724.79 0.21L718.69-21.13L724.63-21.13Z M768.49-28.44L774.23-28.44L774.23-8.75Q774.19-4.32 771.79-1.96Q769.39 0.39 764.89 0.39L764.89 0.39Q760.32 0.39 757.91-1.99Q755.50-4.38 755.50-8.89L755.50-8.89L755.50-28.44L761.28-28.44L761.28-8.87Q761.28-6.45 762.06-5.41Q762.84-4.38 764.89-4.38Q766.95-4.38 767.71-5.40Q768.47-6.43 768.49-8.77L768.49-8.77L768.49-28.44Z M791.67-5.66L791.67-5.66Q791.67-6.37 790.99-6.96Q790.32-7.56 788.00-8.57L788.00-8.57Q784.58-9.96 783.30-11.45Q782.02-12.93 782.02-15.14L782.02-15.14Q782.02-17.91 784.02-19.72Q786.02-21.52 789.32-21.52L789.32-21.52Q792.80-21.52 794.89-19.73Q796.98-17.93 796.98-14.90L796.98-14.90L791.45-14.90Q791.45-17.48 789.30-17.48L789.30-17.48Q788.43-17.48 787.86-16.93Q787.29-16.39 787.29-15.41L787.29-15.41Q787.29-14.71 787.92-14.17Q788.54-13.63 790.87-12.64L790.87-12.64Q794.25-11.39 795.64-9.85Q797.04-8.32 797.04-5.88L797.04-5.88Q797.04-3.05 794.91-1.33Q792.78 0.39 789.32 0.39L789.32 0.39Q787 0.39 785.22-0.52Q783.45-1.43 782.44-3.05Q781.43-4.67 781.43-6.54L781.43-6.54L786.69-6.54Q786.73-5.10 787.36-4.38Q788.00-3.65 789.44-3.65L789.44-3.65Q791.67-3.65 791.67-5.66Z M813.01 0.39L813.01 0.39Q808.75 0.39 806.37-2.15Q803.99-4.69 803.99-9.41L803.99-9.41L803.99-11.09Q803.99-16.09 806.18-18.81Q808.36-21.52 812.45-21.52L812.45-21.52Q816.43-21.52 818.44-18.97Q820.45-16.43 820.49-11.43L820.49-11.43L820.49-8.71L809.50-8.71Q809.61-6.37 810.53-5.28Q811.45-4.20 813.36-4.20L813.36-4.20Q816.14-4.20 817.99-6.09L817.99-6.09L820.16-2.75Q819.14-1.35 817.21-0.48Q815.28 0.39 813.01 0.39ZM809.54-12.58L809.54-12.58L815.06-12.58L815.06-13.09Q815.02-14.98 814.44-15.96Q813.85-16.93 812.41-16.93Q810.96-16.93 810.31-15.90Q809.65-14.86 809.54-12.58Z M838.11-21.27L838.05-15.80L836.21-15.96Q833.95-15.96 833.14-13.96L833.14-13.96L833.14 0L827.60 0L827.60-21.13L832.81-21.13L832.97-18.85Q834.28-21.52 836.58-21.52L836.58-21.52Q837.52-21.52 838.11-21.27L838.11-21.27Z M841.95-2.81L841.95-2.81Q841.95-4.14 842.84-5Q843.73-5.86 845.15-5.86L845.15-5.86Q846.54-5.86 847.46-5.01Q848.38-4.16 848.38-2.81L848.38-2.81Q848.38-1.45 847.45-0.62Q846.52 0.21 845.15 0.21L845.15 0.21Q843.77 0.21 842.86-0.63Q841.95-1.46 841.95-2.81Z"/></g>
</svg>
</g><g opacity="1" transform="rotate(0 109.7134 294.8095)">
<svg width="260.4298" height="24.9109" x="109.7134" y="294.8095" version="1.1" preserveAspectRatio="none" viewBox="1.3477 -30.4102 407.1484 38.9454">
  <g transform="matrix(1 0 0 1 0 0)" class="companyName"><path id="id-D6z1nYkh22" d="M18.34-9.63L25.16-9.63Q25.02-6.66 23.55-4.38Q22.09-2.11 19.44-0.86Q16.80 0.39 13.40 0.39L13.40 0.39Q7.79 0.39 4.57-3.26Q1.35-6.91 1.35-13.57L1.35-13.57L1.35-14.98Q1.35-19.16 2.80-22.29Q4.26-25.43 6.99-27.14Q9.73-28.85 13.32-28.85L13.32-28.85Q18.50-28.85 21.64-26.12Q24.79-23.40 25.21-18.61L25.21-18.61L18.38-18.61Q18.30-21.21 17.07-22.34Q15.84-23.48 13.32-23.48L13.32-23.48Q10.76-23.48 9.57-21.56Q8.38-19.65 8.32-15.45L8.32-15.45L8.32-13.44Q8.32-8.89 9.46-6.93Q10.61-4.98 13.40-4.98L13.40-4.98Q15.76-4.98 17.01-6.09Q18.26-7.21 18.34-9.63L18.34-9.63Z M35.04-21.13L35.04 0L28.44 0L28.44-21.13L35.04-21.13ZM28.05-26.58L28.05-26.58Q28.05-27.99 29.06-28.89Q30.08-29.79 31.70-29.79Q33.32-29.79 34.34-28.89Q35.35-27.99 35.35-26.58Q35.35-25.18 34.34-24.28Q33.32-23.38 31.70-23.38Q30.08-23.38 29.06-24.28Q28.05-25.18 28.05-26.58Z M44.24-21.13L47.52-7.83L50.86-21.13L57.79-21.13L50.90 0L44.18 0L37.29-21.13L44.24-21.13Z M66.70-21.13L66.70 0L60.10 0L60.10-21.13L66.70-21.13ZM59.71-26.58L59.71-26.58Q59.71-27.99 60.72-28.89Q61.74-29.79 63.36-29.79Q64.98-29.79 66.00-28.89Q67.01-27.99 67.01-26.58Q67.01-25.18 66.00-24.28Q64.98-23.38 63.36-23.38Q61.74-23.38 60.72-24.28Q59.71-25.18 59.71-26.58Z M77.70-30L77.70 0L71.09 0L71.09-30L77.70-30Z M88.69-21.13L88.69 0L82.09 0L82.09-21.13L88.69-21.13ZM81.70-26.58L81.70-26.58Q81.70-27.99 82.71-28.89Q83.73-29.79 85.35-29.79Q86.97-29.79 87.99-28.89Q89.00-27.99 89.00-26.58Q89.00-25.18 87.99-24.28Q86.97-23.38 85.35-23.38Q83.73-23.38 82.71-24.28Q81.70-25.18 81.70-26.58Z M111.23 0L104.65 0Q104.30-0.64 104.02-1.89L104.02-1.89Q102.21 0.39 98.95 0.39L98.95 0.39Q95.96 0.39 93.87-1.42Q91.78-3.22 91.78-5.96L91.78-5.96Q91.78-9.39 94.32-11.15Q96.86-12.91 101.70-12.91L101.70-12.91L103.73-12.91L103.73-14.02Q103.73-16.93 101.21-16.93L101.21-16.93Q98.87-16.93 98.87-14.63L98.87-14.63L92.29-14.63Q92.29-17.70 94.89-19.61Q97.50-21.52 101.54-21.52Q105.59-21.52 107.93-19.55Q110.27-17.58 110.33-14.14L110.33-14.14L110.33-4.79Q110.37-1.88 111.23-0.33L111.23-0.33L111.23 0ZM100.53-4.30L100.53-4.30Q101.76-4.30 102.57-4.82Q103.38-5.35 103.73-6.02L103.73-6.02L103.73-9.39L101.82-9.39Q98.38-9.39 98.38-6.31L98.38-6.31Q98.38-5.41 98.98-4.85Q99.59-4.30 100.53-4.30Z M113.85-21.13L120.02-21.13L120.23-18.65Q122.42-21.52 126.27-21.52L126.27-21.52Q129.57-21.52 131.20-19.55Q132.83-17.58 132.89-13.61L132.89-13.61L132.89 0L126.29 0L126.29-13.34Q126.29-14.94 125.64-15.69Q125-16.45 123.30-16.45L123.30-16.45Q121.37-16.45 120.43-14.92L120.43-14.92L120.43 0L113.85 0L113.85-21.13Z M162.99-9.63L169.80-9.63Q169.67-6.66 168.20-4.38Q166.74-2.11 164.09-0.86Q161.45 0.39 158.05 0.39L158.05 0.39Q152.44 0.39 149.22-3.26Q146.00-6.91 146.00-13.57L146.00-13.57L146.00-14.98Q146.00-19.16 147.45-22.29Q148.91-25.43 151.64-27.14Q154.38-28.85 157.97-28.85L157.97-28.85Q163.14-28.85 166.29-26.12Q169.43-23.40 169.86-18.61L169.86-18.61L163.03-18.61Q162.95-21.21 161.72-22.34Q160.49-23.48 157.97-23.48L157.97-23.48Q155.41-23.48 154.22-21.56Q153.03-19.65 152.97-15.45L152.97-15.45L152.97-13.44Q152.97-8.89 154.11-6.93Q155.25-4.98 158.05-4.98L158.05-4.98Q160.41-4.98 161.66-6.09Q162.91-7.21 162.99-9.63L162.99-9.63Z M177.85-21.13L181.19-9.22L184.71-21.13L191.76-21.13L183.14 3.54L182.77 4.43Q180.94 8.54 176.29 8.54L176.29 8.54Q175 8.54 173.57 8.14L173.57 8.14L173.57 3.44L174.43 3.44Q175.82 3.44 176.55 3.04Q177.29 2.64 177.64 1.60L177.64 1.60L178.16 0.20L170.82-21.13L177.85-21.13Z M213.09-10.72L213.09-10.39Q213.09-5.20 210.94-2.40Q208.79 0.39 204.88 0.39L204.88 0.39Q201.66 0.39 199.69-2.17L199.69-2.17L199.41 0L193.52 0L193.52-30L200.10-30L200.10-19.43Q201.93-21.52 204.84-21.52L204.84-21.52Q208.79-21.52 210.94-18.69Q213.09-15.86 213.09-10.72L213.09-10.72ZM206.48-10.80L206.48-10.80Q206.48-13.85 205.67-15.15Q204.86-16.45 203.18-16.45L203.18-16.45Q200.96-16.45 200.10-14.75L200.10-14.75L200.10-6.35Q200.94-4.67 203.22-4.67L203.22-4.67Q205.55-4.67 206.17-6.93L206.17-6.93Q206.48-8.05 206.48-10.80Z M226.21 0.39L226.21 0.39Q221.35 0.39 218.34-2.51Q215.33-5.41 215.33-10.06L215.33-10.06L215.33-10.61Q215.33-13.85 216.53-16.33Q217.73-18.81 220.04-20.17Q222.34-21.52 225.51-21.52L225.51-21.52Q229.96-21.52 232.54-18.76Q235.12-16.00 235.12-11.05L235.12-11.05L235.12-8.50L222.03-8.50Q222.38-6.72 223.57-5.70Q224.77-4.69 226.66-4.69L226.66-4.69Q229.79-4.69 231.54-6.88L231.54-6.88L234.55-3.32Q233.32-1.62 231.06-0.62Q228.81 0.39 226.21 0.39ZM225.47-16.45L225.47-16.45Q222.58-16.45 222.03-12.62L222.03-12.62L228.67-12.62L228.67-13.13Q228.71-14.71 227.87-15.58Q227.03-16.45 225.47-16.45Z M250.66-21.29L250.55-15.18L248.38-15.33Q245.27-15.33 244.39-13.38L244.39-13.38L244.39 0L237.81 0L237.81-21.13L243.98-21.13L244.20-18.42Q245.86-21.52 248.83-21.52L248.83-21.52Q249.88-21.52 250.66-21.29L250.66-21.29Z M272.54 0L263.18 0L263.18-28.44L272.34-28.44Q276.11-28.44 279.12-26.73Q282.13-25.02 283.82-21.90Q285.51-18.79 285.53-14.92L285.53-14.92L285.53-13.61Q285.53-9.71 283.88-6.61Q282.23-3.52 279.23-1.77Q276.23-0.02 272.54 0L272.54 0ZM272.34-23.14L270.04-23.14L270.04-5.27L272.42-5.27Q275.37-5.27 276.95-7.37Q278.54-9.47 278.54-13.61L278.54-13.61L278.54-14.84Q278.54-18.96 276.95-21.05Q275.37-23.14 272.34-23.14L272.34-23.14Z M298.96 0.39L298.96 0.39Q294.10 0.39 291.09-2.51Q288.09-5.41 288.09-10.06L288.09-10.06L288.09-10.61Q288.09-13.85 289.29-16.33Q290.49-18.81 292.79-20.17Q295.10-21.52 298.26-21.52L298.26-21.52Q302.71-21.52 305.29-18.76Q307.87-16.00 307.87-11.05L307.87-11.05L307.87-8.50L294.79-8.50Q295.14-6.72 296.33-5.70Q297.52-4.69 299.41-4.69L299.41-4.69Q302.54-4.69 304.30-6.88L304.30-6.88L307.30-3.32Q306.07-1.62 303.82-0.62Q301.56 0.39 298.96 0.39ZM298.22-16.45L298.22-16.45Q295.33-16.45 294.79-12.62L294.79-12.62L301.43-12.62L301.43-13.13Q301.46-14.71 300.63-15.58Q299.79-16.45 298.22-16.45Z M318.57 0L311.97 0L311.97-16.56L308.91-16.56L308.91-21.13L311.97-21.13L311.97-22.81Q311.97-26.43 314.10-28.42Q316.23-30.41 320.08-30.41L320.08-30.41Q321.48-30.41 323.16-30L323.16-30L323.18-25.16Q322.58-25.33 321.56-25.33L321.56-25.33Q318.57-25.33 318.57-22.75L318.57-22.75L318.57-21.13L322.70-21.13L322.70-16.56L318.57-16.56L318.57 0Z M334.77 0.39L334.77 0.39Q329.90 0.39 326.89-2.51Q323.89-5.41 323.89-10.06L323.89-10.06L323.89-10.61Q323.89-13.85 325.09-16.33Q326.29-18.81 328.59-20.17Q330.90-21.52 334.06-21.52L334.06-21.52Q338.52-21.52 341.09-18.76Q343.67-16.00 343.67-11.05L343.67-11.05L343.67-8.50L330.59-8.50Q330.94-6.72 332.13-5.70Q333.32-4.69 335.21-4.69L335.21-4.69Q338.34-4.69 340.10-6.88L340.10-6.88L343.11-3.32Q341.88-1.62 339.62-0.62Q337.36 0.39 334.77 0.39ZM334.02-16.45L334.02-16.45Q331.13-16.45 330.59-12.62L330.59-12.62L337.23-12.62L337.23-13.13Q337.27-14.71 336.43-15.58Q335.59-16.45 334.02-16.45Z M346.19-21.13L352.36-21.13L352.58-18.65Q354.77-21.52 358.61-21.52L358.61-21.52Q361.91-21.52 363.54-19.55Q365.18-17.58 365.23-13.61L365.23-13.61L365.23 0L358.63 0L358.63-13.34Q358.63-14.94 357.99-15.69Q357.34-16.45 355.64-16.45L355.64-16.45Q353.71-16.45 352.77-14.92L352.77-14.92L352.77 0L346.19 0L346.19-21.13Z M379.94-5.94L379.94-5.94Q379.94-6.78 379.06-7.29Q378.18-7.79 375.72-8.34Q373.26-8.89 371.66-9.78Q370.06-10.66 369.22-11.93Q368.38-13.20 368.38-14.84L368.38-14.84Q368.38-17.75 370.78-19.64Q373.18-21.52 377.07-21.52L377.07-21.52Q381.25-21.52 383.79-19.63Q386.33-17.73 386.33-14.65L386.33-14.65L379.73-14.65Q379.73-17.19 377.05-17.19L377.05-17.19Q376.02-17.19 375.31-16.61Q374.61-16.04 374.61-15.18L374.61-15.18Q374.61-14.30 375.47-13.75Q376.33-13.20 378.21-12.85Q380.10-12.50 381.52-12.01L381.52-12.01Q386.29-10.37 386.29-6.13L386.29-6.13Q386.29-3.24 383.72-1.43Q381.15 0.39 377.07 0.39L377.07 0.39Q374.36 0.39 372.23-0.59Q370.10-1.56 368.91-3.24Q367.71-4.92 367.71-6.78L367.71-6.78L373.87-6.78Q373.91-5.31 374.84-4.64Q375.78-3.96 377.25-3.96L377.25-3.96Q378.59-3.96 379.27-4.51Q379.94-5.06 379.94-5.94Z M399.59 0.39L399.59 0.39Q394.73 0.39 391.72-2.51Q388.71-5.41 388.71-10.06L388.71-10.06L388.71-10.61Q388.71-13.85 389.91-16.33Q391.11-18.81 393.42-20.17Q395.72-21.52 398.89-21.52L398.89-21.52Q403.34-21.52 405.92-18.76Q408.50-16.00 408.50-11.05L408.50-11.05L408.50-8.50L395.41-8.50Q395.76-6.72 396.95-5.70Q398.14-4.69 400.04-4.69L400.04-4.69Q403.16-4.69 404.92-6.88L404.92-6.88L407.93-3.32Q406.70-1.62 404.44-0.62Q402.19 0.39 399.59 0.39ZM398.85-16.45L398.85-16.45Q395.96-16.45 395.41-12.62L395.41-12.62L402.05-12.62L402.05-13.13Q402.09-14.71 401.25-15.58Q400.41-16.45 398.85-16.45Z"/></g>
</svg>
</g><g opacity="1" transform="rotate(0 179.8567 156.885)">
<svg width="140.2866" height="116.6133" x="179.8567" y="156.885" version="1.1" preserveAspectRatio="none" viewBox="20 33.5 160 133">
  <g transform="matrix(1 0 0 1 0 0)"><g><path d="M28.5 140.8c-4.7 0-8.5-3.8-8.5-8.6V92.9c0-4.7 3.8-8.6 8.5-8.6s8.5 3.8 8.5 8.6v39.3c.1 4.8-3.8 8.6-8.5 8.6z" data-color="1" class="icon1"></path><path d="M57.1 150.2c-4.7 0-8.5-3.8-8.5-8.6v-73c0-4.7 3.8-8.6 8.5-8.6s8.5 3.8 8.5 8.6v73.1c.1 4.7-3.8 8.5-8.5 8.5z" data-color="2" class="icon2"></path><path d="M85.7 132.7c-4.7 0-8.5-3.8-8.5-8.6V98.9c0-4.7 3.8-8.6 8.5-8.6s8.5 3.8 8.5 8.6v25.2c0 4.8-3.8 8.6-8.5 8.6z" data-color="1" class="icon1"></path><path d="M114.3 140.8c-4.7 0-8.5-3.8-8.5-8.6V42.1c0-4.7 3.8-8.6 8.5-8.6s8.5 3.8 8.5 8.6v90.2c0 4.7-3.8 8.5-8.5 8.5z" data-color="3" class="icon3"></path><path d="M142.9 166.5c-4.7 0-8.5-3.8-8.5-8.6v-65c0-4.7 3.8-8.6 8.5-8.6s8.5 3.8 8.5 8.6v65c0 4.8-3.8 8.6-8.5 8.6z" data-color="1" class="icon1"></path><path d="M171.5 140.8c-4.7 0-8.5-3.8-8.5-8.6V82.7c0-4.7 3.8-8.6 8.5-8.6s8.5 3.8 8.5 8.6v49.6c0 4.7-3.8 8.5-8.5 8.5z" data-color="3" class="icon3"></path></g></g>
</svg>
</g></svg>